<svg xmlns="http://www.w3.org/2000/svg" version="1.1" width="768" height="701">
<rect x="0" y="0" width="768" height="701" fill="#557763" />
<g transform="scale(3.000000) translate(0.5 0.5)">
<polygon fill="#afe3c7" fill-opacity="0.501961" points="158,228 -9,115 205,3" />
<polygon fill="#000000" fill-opacity="0.501961" points="-12,-16 -16,52 226,-2" />
<polygon fill="#000000" fill-opacity="0.501961" points="-12,231 -16,69 61,245" />
<polygon fill="#000000" fill-opacity="0.501961" points="255,76 271,224 226,249" />
<polygon fill="#d2fff7" fill-opacity="0.501961" points="-4,136 34,28 74,48" />
<polygon fill="#000000" fill-opacity="0.501961" points="270,-2 210,-16 257,93" />
<polygon fill="#000000" fill-opacity="0.501961" points="101,193 141,249 7,249" />
<polygon fill="#000000" fill-opacity="0.501961" points="48,-14 -16,-1 -16,169" />
<polygon fill="#81d3c1" fill-opacity="0.501961" points="234,143 28,97 234,220" />
<polygon fill="#000000" fill-opacity="0.501961" points="-16,2 175,-15 69,45" />
<polygon fill="#000000" fill-opacity="0.501961" points="128,249 172,206 262,249" />
<polygon fill="#b4e77f" fill-opacity="0.501961" points="116,12 76,56 235,17" />
<polygon fill="#000000" fill-opacity="0.501961" points="22,134 -16,223 51,249" />
<polygon fill="#8cd0ca" fill-opacity="0.501961" points="105,166 46,223 31,158" />
<polygon fill="#de2744" fill-opacity="0.501961" points="136,139 88,169 23,147" />
<polygon fill="#000000" fill-opacity="0.501961" points="271,112 256,249 232,138" />
<polygon fill="#649b32" fill-opacity="0.501961" points="260,132 217,-16 146,76" />
<polygon fill="#000000" fill-opacity="0.501961" points="220,-5 264,115 271,2" />
<polygon fill="#d82455" fill-opacity="0.501961" points="120,71 111,130 149,122" />
<polygon fill="#000000" fill-opacity="0.501961" points="126,249 66,239 99,184" />
<polygon fill="#000000" fill-opacity="0.501961" points="-16,16 93,44 115,-16" />
<polygon fill="#000000" fill-opacity="0.501961" points="-16,-16 4,110 28,39" />
<polygon fill="#000000" fill-opacity="0.501961" points="-3,114 -16,232 58,242" />
<polygon fill="#000000" fill-opacity="0.501961" points="208,244 269,234 259,176" />
<polygon fill="#83e1cc" fill-opacity="0.501961" points="169,108 61,43 150,43" />
<polygon fill="#67b2a3" fill-opacity="0.501961" points="230,129 81,166 138,240" />
<polygon fill="#000000" fill-opacity="0.501961" points="88,-1 173,16 248,-14" />
<polygon fill="#ffffff" fill-opacity="0.501961" points="113,132 96,119 112,97" />
<polygon fill="#000000" fill-opacity="0.501961" points="123,249 197,232 180,203" />
<polygon fill="#7ec0b5" fill-opacity="0.501961" points="186,224 229,221 244,165" />
<polygon fill="#7db8b9" fill-opacity="0.501961" points="74,221 46,216 100,180" />
<polygon fill="#83b5a3" fill-opacity="0.501961" points="2,128 59,41 64,188" />
<polygon fill="#ffffff" fill-opacity="0.501961" points="120,121 131,110 127,90" />
<polygon fill="#004a54" fill-opacity="0.501961" points="194,173 220,163 209,203" />
<polygon fill="#00665e" fill-opacity="0.501961" points="222,109 193,140 171,103" />
<polygon fill="#0e7e7e" fill-opacity="0.501961" points="57,63 67,106 100,49" />
<polygon fill="#88dec2" fill-opacity="0.501961" points="126,72 101,114 49,75" />
<polygon fill="#8be2bf" fill-opacity="0.501961" points="239,160 166,123 239,194" />
<polygon fill="#8cb768" fill-opacity="0.501961" points="114,18 198,95 229,10" />
<polygon fill="#ffffff" fill-opacity="0.501961" points="35,187 32,153 46,175" />
<polygon fill="#000000" fill-opacity="0.501961" points="14,236 160,237 84,216" />
<polygon fill="#000000" fill-opacity="0.501961" points="266,244 234,148 271,94" />
<polygon fill="#004851" fill-opacity="0.501961" points="139,179 125,211 143,208" />
<polygon fill="#e8ffff" fill-opacity="0.501961" points="30,33 23,59 49,34" />
<polygon fill="#b72b54" fill-opacity="0.501961" points="28,76 36,119 16,117" />
<polygon fill="#b2f9de" fill-opacity="0.501961" points="144,220 120,208 115,226" />
<polygon fill="#000000" fill-opacity="0.501961" points="-16,-2 60,40 170,-7" />
<polygon fill="#3c7674" fill-opacity="0.501961" points="44,173 131,171 48,201" />
<polygon fill="#820720" fill-opacity="0.501961" points="67,150 15,136 37,152" />
<polygon fill="#000000" fill-opacity="0.501961" points="-16,120 44,243 29,154" />
<polygon fill="#487934" fill-opacity="0.501961" points="271,95 156,74 236,142" />
<polygon fill="#000000" fill-opacity="0.501961" points="220,-16 271,-6 253,83" />
<polygon fill="#f2ffff" fill-opacity="0.501961" points="92,42 70,57 62,44" />
<polygon fill="#760a2e" fill-opacity="0.501961" points="115,91 136,80 112,110" />
<polygon fill="#c3ebab" fill-opacity="0.501961" points="105,22 144,11 89,49" />
<polygon fill="#000000" fill-opacity="0.501961" points="-16,106 19,-16 23,69" />
<polygon fill="#83d7b6" fill-opacity="0.501961" points="153,71 130,187 193,148" />
<polygon fill="#7bdab9" fill-opacity="0.501961" points="137,133 32,109 47,147" />
<polygon fill="#ffffff" fill-opacity="0.501961" points="10,98 23,74 13,123" />
<polygon fill="#000000" fill-opacity="0.501961" points="198,231 244,248 271,213" />
<polygon fill="#6ea29e" fill-opacity="0.501961" points="172,190 237,201 202,227" />
<polygon fill="#ffffff" fill-opacity="0.501961" points="25,116 29,96 24,104" />
<polygon fill="#ff7f83" fill-opacity="0.501961" points="69,166 35,149 105,157" />
<polygon fill="#92e2c0" fill-opacity="0.501961" points="127,235 169,186 147,186" />
<polygon fill="#b31639" fill-opacity="0.501961" points="131,84 129,128 145,111" />
<polygon fill="#000000" fill-opacity="0.501961" points="197,8 187,-16 104,15" />
<polygon fill="#b21638" fill-opacity="0.501961" points="112,117 130,129 114,92" />
<polygon fill="#59787c" fill-opacity="0.501961" points="134,162 80,181 121,201" />
<polygon fill="#93eac7" fill-opacity="0.501961" points="210,123 211,159 232,148" />
<polygon fill="#01595e" fill-opacity="0.501961" points="65,78 106,58 78,54" />
<polygon fill="#000000" fill-opacity="0.501961" points="125,249 100,189 65,236" />
<polygon fill="#f6fbff" fill-opacity="0.501961" points="126,204 137,168 124,188" />
<polygon fill="#000000" fill-opacity="0.501961" points="92,42 60,41 131,-16" />
<polygon fill="#557278" fill-opacity="0.501961" points="191,184 148,227 184,150" />
<polygon fill="#427237" fill-opacity="0.501961" points="220,17 271,118 213,85" />
<polygon fill="#c8edb1" fill-opacity="0.501961" points="149,32 202,21 185,37" />
<polygon fill="#000000" fill-opacity="0.501961" points="176,198 201,249 146,240" />
<polygon fill="#003b44" fill-opacity="0.501961" points="156,175 157,189 147,179" />
<polygon fill="#709c53" fill-opacity="0.501961" points="112,53 119,23 195,15" />
<polygon fill="#005a5e" fill-opacity="0.501961" points="199,172 221,188 214,160" />
<polygon fill="#000000" fill-opacity="0.501961" points="-9,106 41,205 0,248" />
<polygon fill="#79a358" fill-opacity="0.501961" points="232,16 202,0 180,23" />
<polygon fill="#000000" fill-opacity="0.501961" points="271,237 253,169 222,237" />
<polygon fill="#74d5b0" fill-opacity="0.501961" points="38,34 18,90 77,50" />
<polygon fill="#7ed3b5" fill-opacity="0.501961" points="-2,119 34,125 22,148" />
<polygon fill="#c5e2be" fill-opacity="0.501961" points="120,55 175,34 160,25" />
<polygon fill="#ffffff" fill-opacity="0.501961" points="109,105 99,123 115,126" />
<polygon fill="#000000" fill-opacity="0.501961" points="250,-16 232,39 271,116" />
<polygon fill="#80ceb0" fill-opacity="0.501961" points="188,138 86,43 140,52" />
<polygon fill="#000000" fill-opacity="0.501961" points="255,201 270,113 232,144" />
<polygon fill="#000000" fill-opacity="0.501961" points="33,25 -4,-16 -14,160" />
<polygon fill="#003f46" fill-opacity="0.501961" points="75,87 61,96 77,97" />
<polygon fill="#598456" fill-opacity="0.501961" points="170,43 152,40 165,99" />
<polygon fill="#004f51" fill-opacity="0.501961" points="46,93 42,77 51,80" />
<polygon fill="#a1e2c3" fill-opacity="0.501961" points="48,221 43,202 64,195" />
<polygon fill="#00575a" fill-opacity="0.501961" points="48,202 60,185 47,174" />
<polygon fill="#d1f8f7" fill-opacity="0.501961" points="46,183 43,204 32,160" />
<polygon fill="#81d7b7" fill-opacity="0.501961" points="61,132 63,71 21,134" />
<polygon fill="#618785" fill-opacity="0.501961" points="184,224 241,191 230,217" />
<polygon fill="#000000" fill-opacity="0.501961" points="140,227 110,242 147,249" />
</g>
</svg>