<svg xmlns="http://www.w3.org/2000/svg" version="1.1" width="768" height="528">
<rect x="0" y="0" width="768" height="528" fill="#4b402c" />
<g transform="scale(3.000000) translate(0.5 0.5)">
<polygon fill="#ffd66d" fill-opacity="0.501961" points="41,153 195,151 133,41" />
<polygon fill="#000000" fill-opacity="0.501961" points="67,191 -16,168 39,39" />
<polygon fill="#000000" fill-opacity="0.501961" points="271,79 173,189 266,191" />
<polygon fill="#ffc769" fill-opacity="0.501961" points="167,145 160,57 58,161" />
<polygon fill="#0b7e95" fill-opacity="0.501961" points="52,14 6,77 113,79" />
<polygon fill="#000000" fill-opacity="0.501961" points="144,59 271,6 131,-16" />
<polygon fill="#000000" fill-opacity="0.501961" points="-16,87 58,-9 -7,-4" />
<polygon fill="#41888c" fill-opacity="0.501961" points="193,-1 244,60 165,105" />
<polygon fill="#ffc74a" fill-opacity="0.501961" points="240,123 222,78 212,121" />
<polygon fill="#000000" fill-opacity="0.501961" points="52,121 112,87 101,117" />
<polygon fill="#000000" fill-opacity="0.501961" points="271,90 202,-16 264,-1" />
<polygon fill="#ff8b47" fill-opacity="0.501961" points="141,62 141,19 94,10" />
<polygon fill="#000000" fill-opacity="0.501961" points="138,148 213,191 60,191" />
<polygon fill="#000000" fill-opacity="0.501961" points="87,46 80,-16 132,71" />
<polygon fill="#000000" fill-opacity="0.501961" points="159,87 172,121 248,146" />
<polygon fill="#ffa555" fill-opacity="0.501961" points="85,114 102,69 68,105" />
<polygon fill="#000000" fill-opacity="0.501961" points="28,191 75,86 -16,100" />
<polygon fill="#ffaf51" fill-opacity="0.501961" points="170,75 212,102 189,107" />
<polygon fill="#e38341" fill-opacity="0.501961" points="180,171 222,130 150,153" />
<polygon fill="#ed7b47" fill-opacity="0.501961" points="49,140 96,178 122,108" />
<polygon fill="#fff293" fill-opacity="0.501961" points="192,136 135,85 120,132" />
<polygon fill="#ba8560" fill-opacity="0.501961" points="3,74 28,28 86,-1" />
<polygon fill="#ff7539" fill-opacity="0.501961" points="80,88 138,64 183,87" />
<polygon fill="#dd8e5c" fill-opacity="0.501961" points="212,19 176,50 195,4" />
<polygon fill="#000000" fill-opacity="0.501961" points="188,21 54,-1 194,-16" />
<polygon fill="#000000" fill-opacity="0.501961" points="190,156 269,106 250,191" />
<polygon fill="#026272" fill-opacity="0.501961" points="181,59 199,13 265,101" />
<polygon fill="#000000" fill-opacity="0.501961" points="-16,5 118,-16 -13,46" />
<polygon fill="#000000" fill-opacity="0.501961" points="84,173 -15,99 -16,191" />
<polygon fill="#ffa754" fill-opacity="0.501961" points="84,40 77,49 116,67" />
<polygon fill="#ffc378" fill-opacity="0.501961" points="182,57 183,40 154,68" />
<polygon fill="#000000" fill-opacity="0.501961" points="178,49 146,68 132,-16" />
<polygon fill="#ffb349" fill-opacity="0.501961" points="217,132 238,114 219,83" />
<polygon fill="#000000" fill-opacity="0.501961" points="130,151 81,178 194,175" />
<polygon fill="#fe9757" fill-opacity="0.501961" points="236,35 248,64 198,14" />
<polygon fill="#000000" fill-opacity="0.501961" points="124,41 124,68 79,21" />
<polygon fill="#ff9751" fill-opacity="0.501961" points="250,108 260,90 248,63" />
<polygon fill="#e4864e" fill-opacity="0.501961" points="101,4 154,31 102,28" />
<polygon fill="#ffa757" fill-opacity="0.501961" points="76,7 84,39 67,13" />
<polygon fill="#000000" fill-opacity="0.501961" points="271,167 228,187 233,80" />
<polygon fill="#000000" fill-opacity="0.501961" points="69,119 46,67 -16,121" />
<polygon fill="#000019" fill-opacity="0.501961" points="91,125 115,85 90,92" />
<polygon fill="#105f6a" fill-opacity="0.501961" points="70,99 68,13 20,48" />
<polygon fill="#000000" fill-opacity="0.501961" points="197,85 213,109 221,70" />
<polygon fill="#000000" fill-opacity="0.501961" points="252,-16 209,18 271,59" />
<polygon fill="#bf5e30" fill-opacity="0.501961" points="194,170 155,153 168,113" />
<polygon fill="#000000" fill-opacity="0.501961" points="161,103 214,112 198,139" />
<polygon fill="#000000" fill-opacity="0.501961" points="181,156 269,191 266,128" />
<polygon fill="#000000" fill-opacity="0.501961" points="177,50 192,-13 111,-3" />
<polygon fill="#000000" fill-opacity="0.501961" points="-10,115 -16,2 30,-4" />
<polygon fill="#f97c3f" fill-opacity="0.501961" points="149,87 137,34 102,113" />
<polygon fill="#000000" fill-opacity="0.501961" points="77,10 119,-16 85,33" />
<polygon fill="#000000" fill-opacity="0.501961" points="-16,168 81,158 73,191" />
<polygon fill="#ffc34e" fill-opacity="0.501961" points="238,114 216,133 226,88" />
<polygon fill="#e5be9e" fill-opacity="0.501961" points="96,158 103,172 78,167" />
<polygon fill="#0c606b" fill-opacity="0.501961" points="228,39 203,85 152,75" />
<polygon fill="#135f6a" fill-opacity="0.501961" points="251,112 197,17 238,48" />
<polygon fill="#cb893b" fill-opacity="0.501961" points="125,153 53,134 56,157" />
<polygon fill="#ffa761" fill-opacity="0.501961" points="36,22 64,13 17,48" />
<polygon fill="#ff8948" fill-opacity="0.501961" points="98,88 73,116 67,100" />
<polygon fill="#1f5b64" fill-opacity="0.501961" points="118,74 42,25 61,91" />
<polygon fill="#000000" fill-opacity="0.501961" points="111,191 104,154 160,154" />
<polygon fill="#000000" fill-opacity="0.501961" points="-16,74 79,-16 -16,-15" />
<polygon fill="#ee8b51" fill-opacity="0.501961" points="-6,103 6,71 3,107" />
<polygon fill="#a1602e" fill-opacity="0.501961" points="85,153 121,155 119,132" />
<polygon fill="#fff3cc" fill-opacity="0.501961" points="101,120 72,120 98,127" />
<polygon fill="#ffa154" fill-opacity="0.501961" points="74,14 52,20 86,-4" />
<polygon fill="#000000" fill-opacity="0.501961" points="126,64 88,47 86,4" />
<polygon fill="#000000" fill-opacity="0.501961" points="6,89 50,191 50,69" />
<polygon fill="#dcc1aa" fill-opacity="0.501961" points="182,172 197,166 184,158" />
<polygon fill="#000000" fill-opacity="0.501961" points="271,-9 223,-16 265,106" />
<polygon fill="#ff8b40" fill-opacity="0.501961" points="190,0 223,30 197,18" />
<polygon fill="#168380" fill-opacity="0.501961" points="33,44 60,56 7,90" />
<polygon fill="#000000" fill-opacity="0.501961" points="242,88 229,104 249,118" />
<polygon fill="#000000" fill-opacity="0.501961" points="190,140 213,133 215,89" />
<polygon fill="#f7ae61" fill-opacity="0.501961" points="210,141 171,133 197,151" />
<polygon fill="#ff9846" fill-opacity="0.501961" points="27,37 7,69 12,49" />
<polygon fill="#ff8c4d" fill-opacity="0.501961" points="188,112 210,100 188,87" />
<polygon fill="#000000" fill-opacity="0.501961" points="146,72 193,11 155,-16" />
<polygon fill="#000000" fill-opacity="0.501961" points="196,139 184,96 159,87" />
<polygon fill="#22535e" fill-opacity="0.501961" points="73,13 80,52 12,56" />
<polygon fill="#ff9d50" fill-opacity="0.501961" points="203,100 181,80 157,80" />
<polygon fill="#f12e29" fill-opacity="0.501961" points="230,88 213,114 218,86" />
<polygon fill="#000000" fill-opacity="0.501961" points="85,120 110,90 97,120" />
<polygon fill="#ffac63" fill-opacity="0.501961" points="125,13 96,18 104,10" />
<polygon fill="#000000" fill-opacity="0.501961" points="137,30 155,65 175,49" />
<polygon fill="#000000" fill-opacity="0.501961" points="176,187 271,163 236,116" />
<polygon fill="#1d7273" fill-opacity="0.501961" points="242,56 253,94 183,56" />
<polygon fill="#ffe2c1" fill-opacity="0.501961" points="186,128 194,145 169,120" />
<polygon fill="#274953" fill-opacity="0.501961" points="194,18 239,48 177,69" />
<polygon fill="#000000" fill-opacity="0.501961" points="-2,191 15,88 73,113" />
<polygon fill="#fa884a" fill-opacity="0.501961" points="48,142 70,119 110,140" />
<polygon fill="#17666d" fill-opacity="0.501961" points="17,54 59,35 3,99" />
<polygon fill="#ff9445" fill-opacity="0.501961" points="79,33 94,55 84,55" />
<polygon fill="#000000" fill-opacity="0.501961" points="-16,10 86,-2 44,20" />
<polygon fill="#ff9151" fill-opacity="0.501961" points="102,55 107,67 123,71" />
<polygon fill="#ffb96f" fill-opacity="0.501961" points="197,16 190,14 182,38" />
<polygon fill="#000000" fill-opacity="0.501961" points="124,42 89,19 124,70" />
<polygon fill="#000000" fill-opacity="0.501961" points="246,43 172,-16 271,6" />
<polygon fill="#f8e582" fill-opacity="0.501961" points="121,148 120,102 166,103" />
</g>
</svg>