<svg xmlns="http://www.w3.org/2000/svg" version="1.1" width="606" height="768">
<rect x="0" y="0" width="606" height="768" fill="#473922" />
<g transform="scale(3.000000) translate(0.5 0.5)">
<polygon fill="#ffe798" fill-opacity="0.501961" points="166,243 45,177 171,27" />
<polygon fill="#000000" fill-opacity="0.501961" points="-11,-9 192,-16 -8,259" />
<polygon fill="#f6b960" fill-opacity="0.501961" points="72,79 93,271 145,78" />
<polygon fill="#000000" fill-opacity="0.501961" points="211,-12 69,-16 202,177" />
<polygon fill="#fcb963" fill-opacity="0.501961" points="1,31 72,65 50,96" />
<polygon fill="#ffffe2" fill-opacity="0.501961" points="176,177 166,109 105,206" />
<polygon fill="#000000" fill-opacity="0.501961" points="-16,250 43,57 75,271" />
<polygon fill="#ffeb92" fill-opacity="0.501961" points="162,36 195,11 181,70" />
<polygon fill="#000000" fill-opacity="0.501961" points="199,28 154,265 217,258" />
<polygon fill="#dbac6a" fill-opacity="0.501961" points="145,248 78,112 61,233" />
<polygon fill="#ffd66d" fill-opacity="0.501961" points="57,93 130,122 124,77" />
<polygon fill="#874e1f" fill-opacity="0.501961" points="82,113 94,175 153,161" />
<polygon fill="#eef2dd" fill-opacity="0.501961" points="63,188 152,193 56,153" />
<polygon fill="#000000" fill-opacity="0.501961" points="-16,41 183,17 7,-16" />
<polygon fill="#000000" fill-opacity="0.501961" points="77,271 -5,-5 -16,263" />
<polygon fill="#ffcf56" fill-opacity="0.501961" points="139,81 177,29 154,40" />
<polygon fill="#000000" fill-opacity="0.501961" points="148,101 206,43 217,137" />
<polygon fill="#000000" fill-opacity="0.501961" points="-6,-16 84,85 217,-8" />
<polygon fill="#000000" fill-opacity="0.501961" points="125,124 145,120 136,142" />
<polygon fill="#000000" fill-opacity="0.501961" points="105,271 179,246 68,249" />
<polygon fill="#ffffff" fill-opacity="0.501961" points="171,163 152,120 169,109" />
<polygon fill="#aa6f2c" fill-opacity="0.501961" points="72,248 66,177 169,235" />
<polygon fill="#0a0200" fill-opacity="0.501961" points="66,158 81,89 44,58" />
<polygon fill="#c78336" fill-opacity="0.501961" points="73,145 141,174 159,131" />
<polygon fill="#ffdb61" fill-opacity="0.501961" points="41,87 29,68 74,98" />
<polygon fill="#f1ae3f" fill-opacity="0.501961" points="174,54 154,95 187,58" />
<polygon fill="#000000" fill-opacity="0.501961" points="159,200 199,271 217,118" />
<polygon fill="#e5b44d" fill-opacity="0.501961" points="155,93 113,74 91,164" />
<polygon fill="#000005" fill-opacity="0.501961" points="80,123 100,125 95,141" />
<polygon fill="#ffffe9" fill-opacity="0.501961" points="56,157 76,153 99,182" />
<polygon fill="#000000" fill-opacity="0.501961" points="-1,31 140,82 159,-16" />
<polygon fill="#be7c28" fill-opacity="0.501961" points="166,230 172,179 96,248" />
<polygon fill="#5c0d00" fill-opacity="0.501961" points="187,29 164,43 167,76" />
<polygon fill="#fdd7a5" fill-opacity="0.501961" points="197,6 191,35 172,27" />
<polygon fill="#000000" fill-opacity="0.501961" points="217,229 176,82 171,271" />
<polygon fill="#000000" fill-opacity="0.501961" points="-16,58 54,91 65,216" />
<polygon fill="#ffce4c" fill-opacity="0.501961" points="52,62 82,86 73,71" />
<polygon fill="#000000" fill-opacity="0.501961" points="205,229 199,27 164,98" />
<polygon fill="#fbc558" fill-opacity="0.501961" points="60,228 73,198 86,225" />
<polygon fill="#e2bd7f" fill-opacity="0.501961" points="36,75 4,36 32,45" />
<polygon fill="#f5ecc5" fill-opacity="0.501961" points="172,177 93,201 157,151" />
<polygon fill="#ffc952" fill-opacity="0.501961" points="79,131 106,84 77,108" />
<polygon fill="#f4f4ce" fill-opacity="0.501961" points="82,172 53,175 63,161" />
<polygon fill="#000000" fill-opacity="0.501961" points="-9,182 74,103 75,148" />
<polygon fill="#543520" fill-opacity="0.501961" points="81,190 88,215 124,229" />
<polygon fill="#000000" fill-opacity="0.501961" points="46,246 127,271 146,249" />
<polygon fill="#ffcd55" fill-opacity="0.501961" points="28,45 70,72 54,53" />
<polygon fill="#000000" fill-opacity="0.501961" points="146,95 149,65 166,72" />
<polygon fill="#000000" fill-opacity="0.501961" points="-4,255 1,19 72,260" />
<polygon fill="#ecca82" fill-opacity="0.501961" points="132,91 95,79 93,125" />
<polygon fill="#6a301a" fill-opacity="0.501961" points="48,83 15,42 74,78" />
<polygon fill="#612c0c" fill-opacity="0.501961" points="135,218 108,225 151,197" />
<polygon fill="#000000" fill-opacity="0.501961" points="217,-6 89,83 -3,8" />
<polygon fill="#ebab36" fill-opacity="0.501961" points="151,102 156,149 124,76" />
<polygon fill="#550036" fill-opacity="0.501961" points="127,146 100,145 109,155" />
<polygon fill="#000009" fill-opacity="0.501961" points="100,133 82,135 88,117" />
<polygon fill="#000000" fill-opacity="0.501961" points="160,90 151,117 188,96" />
<polygon fill="#000000" fill-opacity="0.501961" points="126,271 217,251 182,216" />
<polygon fill="#e9bc61" fill-opacity="0.501961" points="115,114 150,64 134,108" />
<polygon fill="#f7bf53" fill-opacity="0.501961" points="145,222 157,202 169,226" />
<polygon fill="#ffd24c" fill-opacity="0.501961" points="165,84 148,93 175,66" />
<polygon fill="#000000" fill-opacity="0.501961" points="168,-16 137,85 75,34" />
<polygon fill="#00000b" fill-opacity="0.501961" points="144,136 129,130 141,117" />
<polygon fill="#b58243" fill-opacity="0.501961" points="132,176 75,155 158,144" />
<polygon fill="#682b12" fill-opacity="0.501961" points="160,82 188,23 156,52" />
<polygon fill="#ffffd9" fill-opacity="0.501961" points="165,109 174,158 155,146" />
<polygon fill="#b6a797" fill-opacity="0.501961" points="116,217 62,182 140,200" />
<polygon fill="#ae7835" fill-opacity="0.501961" points="155,246 145,180 116,247" />
<polygon fill="#000000" fill-opacity="0.501961" points="217,125 164,208 194,271" />
<polygon fill="#daa336" fill-opacity="0.501961" points="131,144 129,109 87,143" />
<polygon fill="#fbfae0" fill-opacity="0.501961" points="154,116 168,110 163,157" />
<polygon fill="#000000" fill-opacity="0.501961" points="-8,30 126,74 207,-16" />
<polygon fill="#ffbb4a" fill-opacity="0.501961" points="40,84 59,87 72,99" />
<polygon fill="#e4bc69" fill-opacity="0.501961" points="143,100 101,114 93,76" />
<polygon fill="#000000" fill-opacity="0.501961" points="68,46 95,33 112,84" />
<polygon fill="#000000" fill-opacity="0.501961" points="-16,17 66,117 25,271" />
<polygon fill="#000000" fill-opacity="0.501961" points="217,67 205,0 163,113" />
<polygon fill="#ffffff" fill-opacity="0.501961" points="137,124 137,116 132,117" />
<polygon fill="#e5bd69" fill-opacity="0.501961" points="140,94 116,115 110,70" />
<polygon fill="#210e09" fill-opacity="0.501961" points="110,238 117,222 114,257" />
<polygon fill="#6d5a3e" fill-opacity="0.501961" points="120,169 79,157 108,177" />
<polygon fill="#dca947" fill-opacity="0.501961" points="127,134 95,92 69,95" />
<polygon fill="#fafde3" fill-opacity="0.501961" points="86,163 57,158 74,152" />
<polygon fill="#d6a336" fill-opacity="0.501961" points="117,168 76,127 75,149" />
<polygon fill="#ffe38b" fill-opacity="0.501961" points="185,31 191,36 182,56" />
<polygon fill="#877762" fill-opacity="0.501961" points="89,195 68,210 86,171" />
<polygon fill="#ddcda2" fill-opacity="0.501961" points="72,158 160,191 106,204" />
<polygon fill="#000000" fill-opacity="0.501961" points="39,271 47,144 66,210" />
<polygon fill="#e2a944" fill-opacity="0.501961" points="117,242 136,246 141,219" />
<polygon fill="#d19934" fill-opacity="0.501961" points="153,150 113,169 153,116" />
<polygon fill="#6e4731" fill-opacity="0.501961" points="154,195 160,206 174,181" />
<polygon fill="#f2d382" fill-opacity="0.501961" points="48,52 11,38 16,50" />
<polygon fill="#a5792d" fill-opacity="0.501961" points="165,150 174,168 161,154" />
<polygon fill="#ffc859" fill-opacity="0.501961" points="151,49 149,64 172,32" />
<polygon fill="#6f3d11" fill-opacity="0.501961" points="162,237 139,246 139,227" />
<polygon fill="#00000a" fill-opacity="0.501961" points="75,95 62,72 80,89" />
<polygon fill="#000000" fill-opacity="0.501961" points="29,79 64,156 77,107" />
<polygon fill="#110b0a" fill-opacity="0.501961" points="157,55 160,77 140,90" />
<polygon fill="#d09434" fill-opacity="0.501961" points="73,200 105,222 105,247" />
<polygon fill="#000000" fill-opacity="0.501961" points="56,53 82,-16 85,86" />
</g>
</svg>