<svg xmlns="http://www.w3.org/2000/svg" version="1.1" width="768" height="723">
<rect x="0" y="0" width="768" height="723" fill="#7d7075" />
<g transform="scale(3.000000) translate(0.5 0.5)">
<polygon fill="#ffffff" fill-opacity="0.501961" points="55,-9 32,245 248,113" />
<polygon fill="#000000" fill-opacity="0.501961" points="271,-16 164,-7 251,256" />
<polygon fill="#000000" fill-opacity="0.501961" points="-1,-16 -16,161 84,22" />
<polygon fill="#ffffff" fill-opacity="0.501961" points="225,120 43,207 166,232" />
<polygon fill="#000000" fill-opacity="0.501961" points="133,256 -7,143 -7,253" />
<polygon fill="#000000" fill-opacity="0.501961" points="167,222 253,256 271,68" />
<polygon fill="#ffdceb" fill-opacity="0.501961" points="25,238 129,27 271,90" />
<polygon fill="#000000" fill-opacity="0.501961" points="61,-16 114,32 271,8" />
<polygon fill="#004466" fill-opacity="0.501961" points="190,131 136,116 159,176" />
<polygon fill="#ffffff" fill-opacity="0.501961" points="61,200 13,150 53,36" />
<polygon fill="#000000" fill-opacity="0.501961" points="-16,-4 64,-16 12,147" />
<polygon fill="#000000" fill-opacity="0.501961" points="271,2 224,75 95,-16" />
<polygon fill="#000000" fill-opacity="0.501961" points="271,234 175,256 218,132" />
<polygon fill="#000000" fill-opacity="0.501961" points="24,230 133,219 169,256" />
<polygon fill="#004670" fill-opacity="0.501961" points="44,127 63,86 100,121" />
<polygon fill="#ffe4ef" fill-opacity="0.501961" points="-16,137 160,160 187,253" />
<polygon fill="#000000" fill-opacity="0.501961" points="177,64 271,71 227,-16" />
<polygon fill="#ffe8f1" fill-opacity="0.501961" points="214,82 146,23 20,90" />
<polygon fill="#000013" fill-opacity="0.501961" points="215,127 206,83 247,87" />
<polygon fill="#000000" fill-opacity="0.501961" points="-12,256 -16,128 49,196" />
<polygon fill="#fffcff" fill-opacity="0.501961" points="25,211 50,229 117,195" />
<polygon fill="#000000" fill-opacity="0.501961" points="166,207 214,256 271,146" />
<polygon fill="#000000" fill-opacity="0.501961" points="28,-3 -16,136 22,137" />
<polygon fill="#006080" fill-opacity="0.501961" points="139,156 160,112 183,154" />
<polygon fill="#000000" fill-opacity="0.501961" points="271,-9 43,-7 250,59" />
<polygon fill="#000000" fill-opacity="0.501961" points="-16,230 140,222 103,256" />
<polygon fill="#ffdae2" fill-opacity="0.501961" points="163,30 47,62 226,129" />
<polygon fill="#ffffff" fill-opacity="0.501961" points="271,90 198,78 220,66" />
<polygon fill="#ffe7f2" fill-opacity="0.501961" points="218,128 198,184 86,217" />
<polygon fill="#020a24" fill-opacity="0.501961" points="89,39 74,19 59,56" />
<polygon fill="#fff9ff" fill-opacity="0.501961" points="67,2 49,25 46,57" />
<polygon fill="#000000" fill-opacity="0.501961" points="255,256 270,65 176,218" />
<polygon fill="#ffe7f0" fill-opacity="0.501961" points="21,157 30,89 79,156" />
<polygon fill="#000000" fill-opacity="0.501961" points="64,-16 -16,2 14,136" />
<polygon fill="#000000" fill-opacity="0.501961" points="183,62 271,79 164,-16" />
<polygon fill="#ffd5db" fill-opacity="0.501961" points="39,169 119,222 171,35" />
<polygon fill="#000000" fill-opacity="0.501961" points="29,163 50,196 -16,247" />
<polygon fill="#000000" fill-opacity="0.501961" points="-16,253 82,217 210,250" />
<polygon fill="#006383" fill-opacity="0.501961" points="98,106 51,99 63,135" />
<polygon fill="#fff4ff" fill-opacity="0.501961" points="103,19 63,0 98,49" />
<polygon fill="#ffe7f1" fill-opacity="0.501961" points="24,223 76,176 69,222" />
<polygon fill="#ffffff" fill-opacity="0.501961" points="234,121 203,139 249,91" />
<polygon fill="#000000" fill-opacity="0.501961" points="64,-16 118,35 165,3" />
<polygon fill="#000000" fill-opacity="0.501961" points="0,144 0,-16 45,64" />
<polygon fill="#ffd3dc" fill-opacity="0.501961" points="157,228 212,149 45,203" />
<polygon fill="#000000" fill-opacity="0.501961" points="0,143 -15,238 41,255" />
<polygon fill="#005a7b" fill-opacity="0.501961" points="84,90 52,120 65,88" />
<polygon fill="#ffdae1" fill-opacity="0.501961" points="29,166 88,127 -7,142" />
<polygon fill="#005b77" fill-opacity="0.501961" points="152,161 140,139 182,156" />
<polygon fill="#ffd6dd" fill-opacity="0.501961" points="158,27 97,33 203,150" />
<polygon fill="#06778d" fill-opacity="0.501961" points="141,138 173,112 188,151" />
<polygon fill="#ffdfe9" fill-opacity="0.501961" points="46,63 113,28 25,131" />
<polygon fill="#ffdce3" fill-opacity="0.501961" points="211,106 168,33 167,133" />
<polygon fill="#000000" fill-opacity="0.501961" points="271,95 213,135 202,256" />
<polygon fill="#ffecf4" fill-opacity="0.501961" points="184,225 175,239 126,201" />
<polygon fill="#000000" fill-opacity="0.501961" points="199,-1 84,-15 114,34" />
<polygon fill="#fbd3da" fill-opacity="0.501961" points="96,57 221,69 90,168" />
<polygon fill="#000000" fill-opacity="0.501961" points="175,249 271,246 258,82" />
<polygon fill="#006783" fill-opacity="0.501961" points="53,120 96,96 78,129" />
<polygon fill="#000000" fill-opacity="0.501961" points="54,-16 43,74 -16,63" />
<polygon fill="#000000" fill-opacity="0.501961" points="271,-14 166,28 193,68" />
<polygon fill="#162a39" fill-opacity="0.501961" points="235,104 215,124 209,97" />
<polygon fill="#000000" fill-opacity="0.501961" points="-16,208 20,161 54,198" />
<polygon fill="#000000" fill-opacity="0.501961" points="249,224 202,179 166,214" />
<polygon fill="#000000" fill-opacity="0.501961" points="130,220 165,247 94,256" />
<polygon fill="#ffdfe7" fill-opacity="0.501961" points="207,164 182,199 186,91" />
<polygon fill="#ffe8eb" fill-opacity="0.501961" points="58,141 41,73 26,102" />
<polygon fill="#000000" fill-opacity="0.501961" points="-15,141 21,136 28,80" />
<polygon fill="#000000" fill-opacity="0.501961" points="159,23 253,-16 270,92" />
<polygon fill="#ffe8f1" fill-opacity="0.501961" points="45,227 40,200 29,223" />
<polygon fill="#fad7de" fill-opacity="0.501961" points="153,222 99,221 134,85" />
<polygon fill="#000000" fill-opacity="0.501961" points="192,24 47,-16 114,27" />
<polygon fill="#000000" fill-opacity="0.501961" points="-16,256 -9,213 136,256" />
<polygon fill="#89757b" fill-opacity="0.501961" points="157,81 134,81 125,93" />
<polygon fill="#fff1fd" fill-opacity="0.501961" points="69,1 51,36 55,13" />
<polygon fill="#736467" fill-opacity="0.501961" points="93,115 83,91 90,64" />
<polygon fill="#00617b" fill-opacity="0.501961" points="147,123 140,149 176,115" />
<polygon fill="#ffe6ee" fill-opacity="0.501961" points="171,214 146,231 186,235" />
<polygon fill="#000000" fill-opacity="0.501961" points="-1,-4 63,-4 -10,169" />
<polygon fill="#fff7ff" fill-opacity="0.501961" points="253,89 241,109 245,78" />
<polygon fill="#000000" fill-opacity="0.501961" points="49,192 -12,256 -1,145" />
<polygon fill="#ffdde6" fill-opacity="0.501961" points="191,189 199,73 216,129" />
<polygon fill="#1d4a52" fill-opacity="0.501961" points="173,116 182,150 183,127" />
<polygon fill="#ffd5df" fill-opacity="0.501961" points="49,193 27,158 109,175" />
<polygon fill="#fffaff" fill-opacity="0.501961" points="168,34 178,49 152,28" />
<polygon fill="#ffe2ec" fill-opacity="0.501961" points="256,83 172,82 220,69" />
<polygon fill="#000000" fill-opacity="0.501961" points="153,238 57,256 78,214" />
<polygon fill="#000000" fill-opacity="0.501961" points="250,256 271,223 162,241" />
<polygon fill="#313b50" fill-opacity="0.501961" points="60,17 56,57 89,37" />
<polygon fill="#ffffff" fill-opacity="0.501961" points="165,124 169,133 178,124" />
<polygon fill="#ffd2da" fill-opacity="0.501961" points="178,183 145,230 162,237" />
<polygon fill="#f6d5db" fill-opacity="0.501961" points="155,197 136,119 9,139" />
<polygon fill="#000000" fill-opacity="0.501961" points="199,251 176,215 236,117" />
<polygon fill="#fff1fa" fill-opacity="0.501961" points="4,149 12,137 23,164" />
<polygon fill="#ffdbe3" fill-opacity="0.501961" points="76,219 46,199 27,218" />
<polygon fill="#005b78" fill-opacity="0.501961" points="61,91 84,91 53,103" />
<polygon fill="#867176" fill-opacity="0.501961" points="136,112 118,115 143,101" />
<polygon fill="#000000" fill-opacity="0.501961" points="146,-16 186,61 236,72" />
<polygon fill="#6e555a" fill-opacity="0.501961" points="41,102 38,114 43,128" />
<polygon fill="#ffd9e2" fill-opacity="0.501961" points="111,29 97,47 60,-1" />
</g>
</svg>