<svg xmlns="http://www.w3.org/2000/svg" version="1.1" width="576" height="768">
                <rect x="0" y="0" width="576" height="768" fill="#836912" />
                <g transform="scale(3.000000) translate(0.5 0.5)">
                <polygon fill="#ffff2f" fill-opacity="0.501961" points="197,148 24,271 16,88" />
                <polygon fill="#000000" fill-opacity="0.501961" points="207,-5 207,112 -16,0" />
                <polygon fill="#000000" fill-opacity="0.501961" points="198,254 192,131 108,258" />
                <polygon fill="#ffff2e" fill-opacity="0.501961" points="188,126 79,20 40,101" />
                <polygon fill="#000000" fill-opacity="0.501961" points="-16,20 88,-16 40,105" />
                <polygon fill="#ffdd25" fill-opacity="0.501961" points="5,232 125,257 99,-16" />
                <polygon fill="#000000" fill-opacity="0.501961" points="-5,271 24,173 -1,72" />
                <polygon fill="#000000" fill-opacity="0.501961" points="207,126 187,-16 89,41" />
                <polygon fill="#000000" fill-opacity="0.501961" points="-3,105 -1,-14 101,-2" />
                <polygon fill="#000000" fill-opacity="0.501961" points="207,207 130,271 119,188" />
                <polygon fill="#fff726" fill-opacity="0.501961" points="48,103 80,12 117,5" />
                <polygon fill="#89003d" fill-opacity="0.501961" points="102,117 72,103 78,146" />
                <polygon fill="#ffdb23" fill-opacity="0.501961" points="4,92 171,166 67,254" />
                <polygon fill="#000000" fill-opacity="0.501961" points="108,105 143,105 156,130" />
                <polygon fill="#000000" fill-opacity="0.501961" points="207,107 197,271 104,271" />
                <polygon fill="#000037" fill-opacity="0.501961" points="74,76 55,86 72,99" />
                <polygon fill="#000000" fill-opacity="0.501961" points="-16,87 29,171 -9,245" />
                <polygon fill="#000000" fill-opacity="0.501961" points="100,-16 193,-15 193,135" />
                <polygon fill="#000000" fill-opacity="0.501961" points="207,85 144,-16 88,50" />
                <polygon fill="#ff2110" fill-opacity="0.501961" points="104,137 136,104 132,146" />
                <polygon fill="#ffbb1f" fill-opacity="0.501961" points="6,115 30,176 59,83" />
                <polygon fill="#ffd422" fill-opacity="0.501961" points="135,125 87,248 185,138" />
                <polygon fill="#000000" fill-opacity="0.501961" points="-16,186 17,245 -15,260" />
                <polygon fill="#ffe827" fill-opacity="0.501961" points="183,111 115,59 69,95" />
                <polygon fill="#000000" fill-opacity="0.501961" points="47,245 26,266 117,260" />
                <polygon fill="#000000" fill-opacity="0.501961" points="-13,103 70,55 -3,-16" />
                <polygon fill="#eb0008" fill-opacity="0.501961" points="66,100 39,93 47,119" />
                <polygon fill="#ffd622" fill-opacity="0.501961" points="164,127 35,185 161,191" />
                <polygon fill="#ffcf22" fill-opacity="0.501961" points="113,105 104,226 -6,271" />
                <polygon fill="#000000" fill-opacity="0.501961" points="207,261 153,271 190,97" />
                <polygon fill="#ffff28" fill-opacity="0.501961" points="141,100 131,118 107,123" />
                <polygon fill="#fff426" fill-opacity="0.501961" points="7,92 29,86 16,151" />
                <polygon fill="#000000" fill-opacity="0.501961" points="143,113 187,134 133,125" />
                <polygon fill="#000000" fill-opacity="0.501961" points="63,-16 -16,11 43,107" />
                <polygon fill="#ffde22" fill-opacity="0.501961" points="124,239 6,232 44,112" />
                <polygon fill="#000000" fill-opacity="0.501961" points="207,202 131,190 119,271" />
                <polygon fill="#fff124" fill-opacity="0.501961" points="189,126 151,85 152,119" />
                <polygon fill="#ffef27" fill-opacity="0.501961" points="115,4 96,42 79,15" />
                <polygon fill="#000000" fill-opacity="0.501961" points="66,77 65,95 58,84" />
                <polygon fill="#00000f" fill-opacity="0.501961" points="113,106 119,117 130,101" />
                <polygon fill="#000000" fill-opacity="0.501961" points="24,176 -11,271 -2,84" />
                <polygon fill="#000000" fill-opacity="0.501961" points="93,-16 -15,91 52,77" />
                <polygon fill="#6e0014" fill-opacity="0.501961" points="74,109 72,128 100,114" />
                <polygon fill="#f43270" fill-opacity="0.501961" points="72,124 79,147 93,120" />
                <polygon fill="#ffd127" fill-opacity="0.501961" points="114,4 69,32 68,88" />
                <polygon fill="#000000" fill-opacity="0.501961" points="207,46 83,53 162,-16" />
                <polygon fill="#ffdd23" fill-opacity="0.501961" points="156,126 182,143 152,195" />
                <polygon fill="#ffdd1f" fill-opacity="0.501961" points="54,101 97,82 119,116" />
                <polygon fill="#000000" fill-opacity="0.501961" points="77,4 154,6 110,-16" />
                <polygon fill="#000000" fill-opacity="0.501961" points="133,127 152,128 140,100" />
                <polygon fill="#ff000d" fill-opacity="0.501961" points="118,146 137,129 112,123" />
                <polygon fill="#000000" fill-opacity="0.501961" points="207,136 192,-16 106,39" />
                <polygon fill="#000000" fill-opacity="0.501961" points="164,130 202,146 207,120" />
                <polygon fill="#ffb21e" fill-opacity="0.501961" points="59,67 34,107 58,94" />
                <polygon fill="#000000" fill-opacity="0.501961" points="42,247 38,270 127,261" />
                <polygon fill="#000000" fill-opacity="0.501961" points="-16,231 10,250 8,138" />
                <polygon fill="#ffdc28" fill-opacity="0.501961" points="70,87 128,66 65,46" />
                <polygon fill="#ffd324" fill-opacity="0.501961" points="123,235 88,271 110,157" />
                <polygon fill="#9494e8" fill-opacity="0.501961" points="121,104 111,102 127,95" />
                <polygon fill="#000000" fill-opacity="0.501961" points="75,87 60,86 71,94" />
                <polygon fill="#ed7f23" fill-opacity="0.501961" points="59,233 27,247 114,251" />
                <polygon fill="#824314" fill-opacity="0.501961" points="150,159 166,170 163,179" />
                <polygon fill="#000000" fill-opacity="0.501961" points="-14,84 -2,-16 100,1" />
                <polygon fill="#f20d10" fill-opacity="0.501961" points="56,93 40,97 51,124" />
                <polygon fill="#000000" fill-opacity="0.501961" points="10,188 -16,113 7,26" />
                <polygon fill="#000000" fill-opacity="0.501961" points="196,120 149,209 189,271" />
                <polygon fill="#ffda21" fill-opacity="0.501961" points="14,142 96,153 10,85" />
                <polygon fill="#000000" fill-opacity="0.501961" points="112,98 116,113 124,113" />
                <polygon fill="#b45b1b" fill-opacity="0.501961" points="116,203 135,191 118,178" />
                <polygon fill="#000000" fill-opacity="0.501961" points="145,271 119,210 205,167" />
                <polygon fill="#ffd71f" fill-opacity="0.501961" points="130,70 108,110 75,47" />
                <polygon fill="#000000" fill-opacity="0.501961" points="207,195 117,263 133,192" />
                <polygon fill="#ffec21" fill-opacity="0.501961" points="99,117 123,114 94,138" />
                <polygon fill="#ffe822" fill-opacity="0.501961" points="139,89 123,67 133,123" />
                <polygon fill="#e68b23" fill-opacity="0.501961" points="131,189 132,206 116,204" />
                <polygon fill="#ffd721" fill-opacity="0.501961" points="131,74 160,124 185,126" />
                <polygon fill="#000000" fill-opacity="0.501961" points="136,80 207,80 108,-16" />
                <polygon fill="#470000" fill-opacity="0.501961" points="97,124 70,106 91,110" />
                <polygon fill="#000000" fill-opacity="0.501961" points="132,66 127,-9 94,49" />
                <polygon fill="#ffe223" fill-opacity="0.501961" points="9,99 46,107 30,92" />
                <polygon fill="#ffe421" fill-opacity="0.501961" points="76,99 57,93 67,150" />
                <polygon fill="#000000" fill-opacity="0.501961" points="7,220 -14,271 11,245" />
                <polygon fill="#040004" fill-opacity="0.501961" points="12,246 2,233 25,247" />
                <polygon fill="#e28121" fill-opacity="0.501961" points="9,271 22,237 63,237" />
                <polygon fill="#000000" fill-opacity="0.501961" points="190,-16 207,148 155,80" />
                <polygon fill="#000000" fill-opacity="0.501961" points="45,89 91,-16 -16,78" />
                <polygon fill="#ffe023" fill-opacity="0.501961" points="157,128 141,131 167,171" />
                <polygon fill="#ffe023" fill-opacity="0.501961" points="185,143 131,142 161,128" />
                <polygon fill="#ffd722" fill-opacity="0.501961" points="28,159 65,237 11,237" />
                <polygon fill="#000000" fill-opacity="0.501961" points="139,114 133,126 165,125" />
                <polygon fill="#ffdf22" fill-opacity="0.501961" points="106,25 78,20 114,7" />
                <polygon fill="#ea8523" fill-opacity="0.501961" points="81,264 120,256 104,244" />
                <polygon fill="#000000" fill-opacity="0.501961" points="122,116 123,95 129,107" />
                <polygon fill="#ffda25" fill-opacity="0.501961" points="166,176 135,192 157,191" />
                <polygon fill="#ffd422" fill-opacity="0.501961" points="105,55 157,92 62,105" />
                <polygon fill="#ffd820" fill-opacity="0.501961" points="105,10 54,87 75,23" />
                <polygon fill="#000000" fill-opacity="0.501961" points="164,174 159,271 207,133" />
                <polygon fill="#000000" fill-opacity="0.501961" points="207,156 197,125 170,127" />
                <polygon fill="#d66f20" fill-opacity="0.501961" points="84,154 61,150 75,161" />
                <polygon fill="#f0fbff" fill-opacity="0.501961" points="73,84 68,84 72,77" />
                </g>
                </svg>