<svg xmlns="http://www.w3.org/2000/svg" version="1.1" width="768" height="612">
<rect x="0" y="0" width="768" height="612" fill="#5a5845" />
<g transform="scale(3.000000) translate(0.5 0.5)">
<polygon fill="#ffffde" fill-opacity="0.501961" points="24,110 215,116 138,-3" />
<polygon fill="#000000" fill-opacity="0.501961" points="261,216 152,-6 271,-16" />
<polygon fill="#000000" fill-opacity="0.501961" points="-16,-4 105,-7 -1,174" />
<polygon fill="#ffffec" fill-opacity="0.501961" points="164,157 208,121 248,172" />
<polygon fill="#ffffdc" fill-opacity="0.501961" points="37,128 0,182 87,156" />
<polygon fill="#000000" fill-opacity="0.501961" points="251,-16 271,47 29,-1" />
<polygon fill="#ffffaf" fill-opacity="0.501961" points="93,14 44,126 206,87" />
<polygon fill="#00000e" fill-opacity="0.501961" points="118,113 191,211 50,218" />
<polygon fill="#ffffc5" fill-opacity="0.501961" points="39,204 31,143 10,186" />
<polygon fill="#000000" fill-opacity="0.501961" points="194,133 271,74 192,-16" />
<polygon fill="#fff1b4" fill-opacity="0.501961" points="200,203 233,186 232,126" />
<polygon fill="#000000" fill-opacity="0.501961" points="-16,-15 -12,51 225,-10" />
<polygon fill="#000000" fill-opacity="0.501961" points="262,204 209,208 256,155" />
<polygon fill="#04353b" fill-opacity="0.501961" points="192,114 36,120 140,203" />
<polygon fill="#ffeba2" fill-opacity="0.501961" points="86,29 159,19 180,54" />
<polygon fill="#000000" fill-opacity="0.501961" points="4,-16 -16,147 34,141" />
<polygon fill="#ffe8a6" fill-opacity="0.501961" points="89,30 54,120 199,102" />
<polygon fill="#ffffb2" fill-opacity="0.501961" points="181,138 163,173 240,138" />
<polygon fill="#000000" fill-opacity="0.501961" points="-10,163 -2,208 44,219" />
<polygon fill="#ffeca6" fill-opacity="0.501961" points="9,148 77,171 68,136" />
<polygon fill="#000000" fill-opacity="0.501961" points="222,206 100,174 21,219" />
<polygon fill="#000000" fill-opacity="0.501961" points="162,24 254,-16 271,145" />
<polygon fill="#000000" fill-opacity="0.501961" points="180,-16 43,-16 128,26" />
<polygon fill="#03272c" fill-opacity="0.501961" points="8,68 42,135 72,137" />
<polygon fill="#184446" fill-opacity="0.501961" points="261,132 214,137 194,64" />
<polygon fill="#ffffb1" fill-opacity="0.501961" points="44,91 50,117 78,59" />
<polygon fill="#ffd799" fill-opacity="0.501961" points="142,18 158,116 205,88" />
<polygon fill="#ffe1a6" fill-opacity="0.501961" points="18,197 64,143 12,146" />
<polygon fill="#000000" fill-opacity="0.501961" points="80,61 44,-16 58,68" />
<polygon fill="#a5522e" fill-opacity="0.501961" points="81,160 45,158 33,219" />
<polygon fill="#000000" fill-opacity="0.501961" points="260,219 195,219 256,161" />
<polygon fill="#000000" fill-opacity="0.501961" points="22,59 2,210 -16,75" />
<polygon fill="#b6663e" fill-opacity="0.501961" points="196,206 162,169 219,165" />
<polygon fill="#907559" fill-opacity="0.501961" points="106,42 142,43 73,63" />
<polygon fill="#1c4b4d" fill-opacity="0.501961" points="59,49 31,132 15,33" />
<polygon fill="#ffe3a2" fill-opacity="0.501961" points="226,190 186,137 239,166" />
<polygon fill="#1d3d3c" fill-opacity="0.501961" points="233,105 76,136 83,203" />
<polygon fill="#000000" fill-opacity="0.501961" points="236,-16 270,106 176,59" />
<polygon fill="#1d474d" fill-opacity="0.501961" points="149,20 185,29 172,0" />
<polygon fill="#000000" fill-opacity="0.501961" points="70,202 -16,197 14,219" />
<polygon fill="#b37e58" fill-opacity="0.501961" points="198,105 169,119 196,77" />
<polygon fill="#000000" fill-opacity="0.501961" points="69,66 -5,-1 78,-2" />
<polygon fill="#ffe1a5" fill-opacity="0.501961" points="49,111 170,114 169,28" />
<polygon fill="#fddfa7" fill-opacity="0.501961" points="167,174 180,194 172,150" />
<polygon fill="#f7d49d" fill-opacity="0.501961" points="79,163 72,185 62,139" />
<polygon fill="#1f4646" fill-opacity="0.501961" points="68,23 148,18 84,4" />
<polygon fill="#7f674d" fill-opacity="0.501961" points="179,58 132,49 173,46" />
<polygon fill="#fff5b9" fill-opacity="0.501961" points="76,47 115,19 91,25" />
<polygon fill="#000000" fill-opacity="0.501961" points="149,193 231,203 120,219" />
<polygon fill="#000000" fill-opacity="0.501961" points="-2,173 43,219 0,219" />
<polygon fill="#26403c" fill-opacity="0.501961" points="193,69 219,145 239,105" />
<polygon fill="#000000" fill-opacity="0.501961" points="267,162 169,-16 268,-16" />
<polygon fill="#0b2532" fill-opacity="0.501961" points="172,195 165,160 76,187" />
<polygon fill="#ffeaad" fill-opacity="0.501961" points="77,120 51,117 50,85" />
<polygon fill="#fdffff" fill-opacity="0.501961" points="209,122 209,134 195,136" />
<polygon fill="#fff3ad" fill-opacity="0.501961" points="75,146 77,164 53,136" />
<polygon fill="#000000" fill-opacity="0.501961" points="234,162 271,167 271,127" />
<polygon fill="#ffe1a2" fill-opacity="0.501961" points="11,159 27,198 46,200" />
<polygon fill="#233f3b" fill-opacity="0.501961" points="62,122 223,114 92,183" />
<polygon fill="#ffdfa4" fill-opacity="0.501961" points="49,84 87,52 52,116" />
<polygon fill="#ffe9a3" fill-opacity="0.501961" points="222,162 217,135 172,156" />
<polygon fill="#000000" fill-opacity="0.501961" points="91,219 178,192 62,195" />
<polygon fill="#daf1ff" fill-opacity="0.501961" points="235,136 218,142 227,149" />
<polygon fill="#1e3442" fill-opacity="0.501961" points="242,135 264,145 221,151" />
<polygon fill="#1f3836" fill-opacity="0.501961" points="51,127 103,112 90,160" />
<polygon fill="#cde5f9" fill-opacity="0.501961" points="24,162 19,146 8,142" />
<polygon fill="#28423f" fill-opacity="0.501961" points="17,33 46,33 44,141" />
<polygon fill="#000000" fill-opacity="0.501961" points="26,153 -16,90 14,3" />
<polygon fill="#513c34" fill-opacity="0.501961" points="112,33 98,30 87,35" />
<polygon fill="#d5b087" fill-opacity="0.501961" points="221,188 199,199 178,193" />
<polygon fill="#1d4140" fill-opacity="0.501961" points="33,138 34,98 22,135" />
<polygon fill="#000000" fill-opacity="0.501961" points="-16,108 22,7 8,173" />
<polygon fill="#fff1b1" fill-opacity="0.501961" points="165,28 167,52 138,48" />
<polygon fill="#82482d" fill-opacity="0.501961" points="33,171 75,160 35,194" />
<polygon fill="#203937" fill-opacity="0.501961" points="211,134 257,137 196,73" />
<polygon fill="#b68b66" fill-opacity="0.501961" points="49,200 77,174 75,187" />
<polygon fill="#000000" fill-opacity="0.501961" points="200,219 271,141 271,214" />
<polygon fill="#7f6b52" fill-opacity="0.501961" points="141,51 143,39 114,50" />
<polygon fill="#ffefb1" fill-opacity="0.501961" points="82,54 120,47 80,37" />
<polygon fill="#fff2ad" fill-opacity="0.501961" points="175,146 169,173 192,134" />
<polygon fill="#244746" fill-opacity="0.501961" points="104,14 73,4 85,29" />
<polygon fill="#213f3f" fill-opacity="0.501961" points="90,55 18,61 19,82" />
<polygon fill="#d3e9fe" fill-opacity="0.501961" points="16,174 12,180 2,173" />
<polygon fill="#3b4144" fill-opacity="0.501961" points="233,159 230,165 235,174" />
<polygon fill="#000000" fill-opacity="0.501961" points="125,219 75,182 51,219" />
<polygon fill="#27433e" fill-opacity="0.501961" points="26,119 164,184 171,127" />
<polygon fill="#1d3e3e" fill-opacity="0.501961" points="142,11 169,3 174,34" />
<polygon fill="#7c4126" fill-opacity="0.501961" points="206,190 218,164 181,163" />
<polygon fill="#000000" fill-opacity="0.501961" points="-10,117 -16,214 14,153" />
<polygon fill="#ffeeae" fill-opacity="0.501961" points="112,33 165,28 146,18" />
<polygon fill="#000000" fill-opacity="0.501961" points="164,-16 79,4 146,20" />
<polygon fill="#1f3c39" fill-opacity="0.501961" points="150,158 215,86 235,105" />
<polygon fill="#fae0a3" fill-opacity="0.501961" points="15,152 9,169 72,153" />
<polygon fill="#000000" fill-opacity="0.501961" points="-15,5 78,53 71,-16" />
<polygon fill="#e8feff" fill-opacity="0.501961" points="36,129 46,138 34,140" />
<polygon fill="#051729" fill-opacity="0.501961" points="79,188 110,191 80,146" />
<polygon fill="#665440" fill-opacity="0.501961" points="133,29 140,35 153,33" />
<polygon fill="#ffe6a5" fill-opacity="0.501961" points="226,185 235,150 212,154" />
<polygon fill="#000000" fill-opacity="0.501961" points="179,56 271,127 178,-16" />
<polygon fill="#ffe8aa" fill-opacity="0.501961" points="91,25 78,41 119,22" />
</g>
</svg>