<svg xmlns="http://www.w3.org/2000/svg" version="1.1" width="768" height="768">
<rect x="0" y="0" width="768" height="768" fill="#42565a" />
<g transform="scale(3.000000) translate(0.5 0.5)">
<polygon fill="#d0feff" fill-opacity="0.501961" points="41,215 74,-16 232,227" />
<polygon fill="#000000" fill-opacity="0.501961" points="258,271 264,-16 136,-3" />
<polygon fill="#000000" fill-opacity="0.501961" points="8,271 -16,2 65,-16" />
<polygon fill="#d9dcc6" fill-opacity="0.501961" points="9,118 86,95 177,271" />
<polygon fill="#000000" fill-opacity="0.501961" points="170,203 271,80 158,-16" />
<polygon fill="#9ad0e2" fill-opacity="0.501961" points="146,15 186,163 78,-16" />
<polygon fill="#59cbef" fill-opacity="0.501961" points="124,243 271,204 222,156" />
<polygon fill="#000000" fill-opacity="0.501961" points="118,212 -16,252 146,271" />
<polygon fill="#000000" fill-opacity="0.501961" points="17,271 -16,164 55,136" />
<polygon fill="#000000" fill-opacity="0.501961" points="112,264 271,210 260,260" />
<polygon fill="#000000" fill-opacity="0.501961" points="-16,131 4,-15 69,93" />
<polygon fill="#63b2ca" fill-opacity="0.501961" points="79,-16 45,69 184,165" />
<polygon fill="#000000" fill-opacity="0.501961" points="271,197 146,79 252,-16" />
<polygon fill="#7ae3ff" fill-opacity="0.501961" points="4,142 43,102 66,142" />
<polygon fill="#7ee2fb" fill-opacity="0.501961" points="79,225 39,183 41,240" />
<polygon fill="#000000" fill-opacity="0.501961" points="-16,-2 -12,67 91,-3" />
<polygon fill="#000000" fill-opacity="0.501961" points="105,62 126,37 106,33" />
<polygon fill="#c37969" fill-opacity="0.501961" points="151,73 185,136 168,202" />
<polygon fill="#000000" fill-opacity="0.501961" points="85,211 148,254 50,256" />
<polygon fill="#000000" fill-opacity="0.501961" points="180,271 271,245 169,224" />
<polygon fill="#000000" fill-opacity="0.501961" points="3,262 -16,125 55,165" />
<polygon fill="#efc69b" fill-opacity="0.501961" points="46,129 75,212 121,99" />
<polygon fill="#95e3f6" fill-opacity="0.501961" points="94,-8 141,15 46,69" />
<polygon fill="#000000" fill-opacity="0.501961" points="177,186 271,125 203,-16" />
<polygon fill="#65c7e5" fill-opacity="0.501961" points="130,173 174,247 133,248" />
<polygon fill="#7ccade" fill-opacity="0.501961" points="241,163 197,170 237,224" />
<polygon fill="#000000" fill-opacity="0.501961" points="268,99 271,-8 99,-16" />
<polygon fill="#438fa5" fill-opacity="0.501961" points="164,125 152,74 42,65" />
<polygon fill="#64bfd9" fill-opacity="0.501961" points="139,9 162,46 147,103" />
<polygon fill="#000000" fill-opacity="0.501961" points="143,252 3,227 -16,270" />
<polygon fill="#000000" fill-opacity="0.501961" points="231,271 264,141 271,243" />
<polygon fill="#428ea5" fill-opacity="0.501961" points="234,227 222,177 154,224" />
<polygon fill="#000000" fill-opacity="0.501961" points="17,120 72,-9 -16,7" />
<polygon fill="#c9ad8e" fill-opacity="0.501961" points="51,179 146,158 112,219" />
<polygon fill="#000000" fill-opacity="0.501961" points="186,150 144,-16 271,175" />
<polygon fill="#8dd3e4" fill-opacity="0.501961" points="114,62 64,20 56,66" />
<polygon fill="#000000" fill-opacity="0.501961" points="-16,143 51,144 18,271" />
<polygon fill="#8cd8f2" fill-opacity="0.501961" points="66,196 38,190 36,234" />
<polygon fill="#000000" fill-opacity="0.501961" points="271,256 271,211 140,258" />
<polygon fill="#000000" fill-opacity="0.501961" points="-16,38 7,-16 103,-3" />
<polygon fill="#000000" fill-opacity="0.501961" points="65,95 13,15 -16,125" />
<polygon fill="#6bc0db" fill-opacity="0.501961" points="91,86 9,120 21,143" />
<polygon fill="#7ccee4" fill-opacity="0.501961" points="155,131 132,101 97,156" />
<polygon fill="#000000" fill-opacity="0.501961" points="271,172 154,85 180,-15" />
<polygon fill="#8e9589" fill-opacity="0.501961" points="121,218 61,209 128,186" />
<polygon fill="#74c7df" fill-opacity="0.501961" points="170,239 162,174 118,192" />
<polygon fill="#41879d" fill-opacity="0.501961" points="137,162 101,152 164,130" />
<polygon fill="#8ad0e0" fill-opacity="0.501961" points="191,181 211,162 248,178" />
<polygon fill="#000000" fill-opacity="0.501961" points="79,211 78,271 129,227" />
<polygon fill="#dad0b7" fill-opacity="0.501961" points="45,192 73,96 91,197" />
<polygon fill="#ca8574" fill-opacity="0.501961" points="184,140 156,84 172,169" />
<polygon fill="#000000" fill-opacity="0.501961" points="109,31 112,51 126,39" />
<polygon fill="#000000" fill-opacity="0.501961" points="194,113 198,166 173,199" />
<polygon fill="#4f8fa1" fill-opacity="0.501961" points="158,104 77,102 46,66" />
<polygon fill="#000000" fill-opacity="0.501961" points="-16,166 56,177 43,145" />
<polygon fill="#64b3c9" fill-opacity="0.501961" points="116,82 138,12 160,42" />
<polygon fill="#e4dae3" fill-opacity="0.501961" points="160,134 152,154 160,179" />
<polygon fill="#000000" fill-opacity="0.501961" points="122,0 271,-1 245,65" />
<polygon fill="#56a0b5" fill-opacity="0.501961" points="204,232 241,173 246,215" />
<polygon fill="#619eac" fill-opacity="0.501961" points="63,188 81,212 52,237" />
<polygon fill="#7d6965" fill-opacity="0.501961" points="183,167 160,148 167,197" />
<polygon fill="#76bdd1" fill-opacity="0.501961" points="45,101 49,142 65,100" />
<polygon fill="#000000" fill-opacity="0.501961" points="193,163 220,-16 271,163" />
<polygon fill="#70b8cc" fill-opacity="0.501961" points="172,184 126,226 154,254" />
<polygon fill="#b15b83" fill-opacity="0.501961" points="126,48 103,53 124,58" />
<polygon fill="#8fd1df" fill-opacity="0.501961" points="104,11 55,73 70,9" />
<polygon fill="#b9a185" fill-opacity="0.501961" points="118,158 100,172 55,160" />
<polygon fill="#ccb699" fill-opacity="0.501961" points="120,107 91,138 67,99" />
<polygon fill="#c7c8b7" fill-opacity="0.501961" points="72,154 48,155 56,121" />
<polygon fill="#010202" fill-opacity="0.501961" points="244,146 256,220 270,165" />
<polygon fill="#a2e1f0" fill-opacity="0.501961" points="114,123 129,105 146,121" />
<polygon fill="#010101" fill-opacity="0.501961" points="172,226 177,271 271,247" />
<polygon fill="#000000" fill-opacity="0.501961" points="146,264 7,254 113,217" />
<polygon fill="#1c3036" fill-opacity="0.501961" points="126,26 123,44 130,37" />
<polygon fill="#c9b5b3" fill-opacity="0.501961" points="144,94 154,96 155,81" />
<polygon fill="#c2e6f1" fill-opacity="0.501961" points="124,20 121,36 114,32" />
<polygon fill="#210d13" fill-opacity="0.501961" points="54,52 59,38 39,46" />
<polygon fill="#000001" fill-opacity="0.501961" points="-14,132 67,91 -12,44" />
<polygon fill="#62a2ad" fill-opacity="0.501961" points="71,197 43,241 78,223" />
<polygon fill="#96d4e5" fill-opacity="0.501961" points="67,205 49,175 36,206" />
<polygon fill="#c69e96" fill-opacity="0.501961" points="182,138 171,165 174,114" />
<polygon fill="#c0b198" fill-opacity="0.501961" points="60,190 93,216 151,168" />
<polygon fill="#2e4f59" fill-opacity="0.501961" points="158,106 159,134 164,116" />
<polygon fill="#84c0cf" fill-opacity="0.501961" points="61,50 69,72 48,59" />
<polygon fill="#82c4d3" fill-opacity="0.501961" points="130,233 169,204 124,179" />
<polygon fill="#537a84" fill-opacity="0.501961" points="126,191 116,203 117,216" />
<polygon fill="#857165" fill-opacity="0.501961" points="149,155 143,172 153,176" />
<polygon fill="#e9dbbe" fill-opacity="0.501961" points="61,155 86,163 86,102" />
<polygon fill="#7dc1d4" fill-opacity="0.501961" points="36,107 52,137 22,119" />
<polygon fill="#4b6f77" fill-opacity="0.501961" points="132,104 151,85 128,95" />
<polygon fill="#080807" fill-opacity="0.501961" points="26,271 42,228 58,271" />
<polygon fill="#010202" fill-opacity="0.501961" points="161,90 162,25 194,139" />
<polygon fill="#7fbac9" fill-opacity="0.501961" points="129,66 84,66 110,55" />
<polygon fill="#020304" fill-opacity="0.501961" points="23,265 -14,140 49,143" />
<polygon fill="#63aabb" fill-opacity="0.501961" points="70,228 65,209 29,228" />
<polygon fill="#709ea8" fill-opacity="0.501961" points="61,17 70,12 59,38" />
<polygon fill="#000000" fill-opacity="0.501961" points="24,58 32,-5 91,-16" />
<polygon fill="#569eb3" fill-opacity="0.501961" points="159,208 243,172 242,216" />
<polygon fill="#856d67" fill-opacity="0.501961" points="177,115 155,85 151,96" />
<polygon fill="#488798" fill-opacity="0.501961" points="172,242 167,218 153,253" />
</g>
</svg>